<svg width="24" height="18" viewBox="0 0 24 18" fill="none" xmlns="http://www.w3.org/2000/svg">
<path d="M23.5432 13.7717L22.2531 4.835C21.9216 2.53666 19.9213 0.833328 17.5658 0.833328H6.84199C4.48654 0.833328 2.48618 2.53666 2.15476 4.835L0.864586 13.7717C0.604184 15.5683 2.01272 17.1667 3.84737 17.1667C4.65225 17.1667 5.40978 16.8517 5.97793 16.2917L8.65297 13.6667H15.7548L18.418 16.2917C18.9862 16.8517 19.7556 17.1667 20.5486 17.1667C22.3951 17.1667 23.8036 15.5683 23.5432 13.7717ZM11.0203 7.83333H8.65297V10.1667H7.46933V7.83333H5.10204V6.66666H7.46933V4.33333H8.65297V6.66666H11.0203V7.83333ZM15.7548 6.66666C15.1038 6.66666 14.5712 6.14166 14.5712 5.5C14.5712 4.85833 15.1038 4.33333 15.7548 4.33333C16.4058 4.33333 16.9385 4.85833 16.9385 5.5C16.9385 6.14166 16.4058 6.66666 15.7548 6.66666ZM18.1221 10.1667C17.4711 10.1667 16.9385 9.64166 16.9385 9C16.9385 8.35833 17.4711 7.83333 18.1221 7.83333C18.7731 7.83333 19.3058 8.35833 19.3058 9C19.3058 9.64166 18.7731 10.1667 18.1221 10.1667Z" fill="#2A7AE4"/>
</svg>
